<?xml version="1.0" encoding="utf-8"?>
<!-- Generator: Adobe Illustrator 25.3.0, SVG Export Plug-In . SVG Version: 6.00 Build 0)  -->
<svg version="1.1" id="Layer_1" xmlns="http://www.w3.org/2000/svg" xmlns:xlink="http://www.w3.org/1999/xlink" x="0px" y="0px"
	 viewBox="0 0 24 24" style="enable-background:new 0 0 24 24;" xml:space="preserve">
<style type="text/css">
	.st0{fill:#707CC0;}
	.st1{fill:#F2F2F2;}
	.st2{fill:#40396E;}
</style>
<g>
	<path class="st0" d="M12,0.5C5.6,0.5,0.5,5.6,0.5,12S5.6,23.5,12,23.5S23.5,18.4,23.5,12S18.4,0.5,12,0.5z"/>
	<path class="st1" d="M15.1,22.4c0-0.3,0-1.5,0-2.9c0-1-0.3-1.6-0.7-2c2.3-0.3,4.8-1.2,4.8-5.2c0-1.1-0.4-2.1-1.1-2.8
		c0.1-0.3,0.5-1.3-0.1-2.8c0,0-0.9-0.3-2.9,1.1c-0.8-0.2-1.7-0.4-2.6-0.4c-0.9,0-1.8,0.1-2.6,0.4C7.9,6.5,7,6.8,7,6.8
		C6.4,8.2,6.8,9.3,6.9,9.6c-0.7,0.7-1.1,1.7-1.1,2.8c0,4,2.5,4.9,4.8,5.2c-0.3,0.3-0.6,0.7-0.7,1.4c-0.6,0.3-2.1,0.7-3.1-0.9
		c0,0-0.6-1-1.6-1.1c0,0-1,0-0.1,0.6c0,0,0.7,0.3,1.2,1.5c0,0,0.6,2,3.5,1.4c0,0.9,0,1.5,0,1.8c0,0.1,0,0.2-0.1,0.3
		c1,0.4,2,0.6,3.1,0.6c0.9,0,1.8-0.2,2.6-0.4C15.2,22.9,15.1,22.7,15.1,22.4z"/>
	<path class="st2" d="M12,24C5.4,24,0,18.6,0,12S5.4,0,12,0s12,5.4,12,12S18.6,24,12,24z M12,0.9C5.9,0.9,0.9,5.9,0.9,12
		s5,11.1,11.1,11.1s11.1-5,11.1-11.1S18.1,0.9,12,0.9z"/>
</g>
</svg>
